<?xml version="1.0" encoding="utf-8" standalone="no"?>
<!DOCTYPE svg PUBLIC "-//W3C//DTD SVG 1.1//EN"
  "http://www.w3.org/Graphics/SVG/1.1/DTD/svg11.dtd">
<!-- Created with matplotlib (https://matplotlib.org/) -->
<svg height="345.6pt" version="1.1" viewBox="0 0 460.8 345.6" width="460.8pt" xmlns="http://www.w3.org/2000/svg" xmlns:xlink="http://www.w3.org/1999/xlink">
 <defs>
  <style type="text/css">
*{stroke-linecap:butt;stroke-linejoin:round;}
  </style>
 </defs>
 <g id="figure_1">
  <g id="patch_1">
   <path d="M 0 345.6 
L 460.8 345.6 
L 460.8 0 
L 0 0 
z
" style="fill:#ffffff;"/>
  </g>
  <g id="axes_1">
   <g id="patch_2">
    <path d="M 57.6 307.584 
L 414.72 307.584 
L 414.72 41.472 
L 57.6 41.472 
z
" style="fill:#ffffff;"/>
   </g>
   <g id="line2d_1">
    <path clip-path="url(#pbdcd98d7f0)" d="M 73.832727 53.568 
L 398.487273 295.488 
" style="fill:none;stroke:#000000;stroke-linecap:square;stroke-opacity:0.6;stroke-width:5;"/>
   </g>
   <g id="PathCollection_1">
    <defs>
     <path d="M 0 3 
C 0.795609 3 1.55874 2.683901 2.12132 2.12132 
C 2.683901 1.55874 3 0.795609 3 0 
C 3 -0.795609 2.683901 -1.55874 2.12132 -2.12132 
C 1.55874 -2.683901 0.795609 -3 0 -3 
C -0.795609 -3 -1.55874 -2.683901 -2.12132 -2.12132 
C -2.683901 -1.55874 -3 -0.795609 -3 0 
C -3 0.795609 -2.683901 1.55874 -2.12132 2.12132 
C -1.55874 2.683901 -0.795609 3 0 3 
z
" id="m679021298c" style="stroke:#00ffff;"/>
    </defs>
    <g clip-path="url(#pbdcd98d7f0)">
     <use style="fill:#00ffff;stroke:#00ffff;" x="133.40374" xlink:href="#m679021298c" y="94.689277"/>
     <use style="fill:#00ffff;stroke:#00ffff;" x="163.189247" xlink:href="#m679021298c" y="104.89322"/>
     <use style="fill:#00ffff;stroke:#00ffff;" x="192.974753" xlink:href="#m679021298c" y="115.853798"/>
     <use style="fill:#00ffff;stroke:#00ffff;" x="222.76026" xlink:href="#m679021298c" y="133.667262"/>
     <use style="fill:#00ffff;stroke:#00ffff;" x="252.545766" xlink:href="#m679021298c" y="163.855783"/>
     <use style="fill:#00ffff;stroke:#00ffff;" x="282.331273" xlink:href="#m679021298c" y="185.893849"/>
     <use style="fill:#00ffff;stroke:#00ffff;" x="312.116779" xlink:href="#m679021298c" y="214.84238"/>
     <use style="fill:#00ffff;stroke:#00ffff;" x="341.902286" xlink:href="#m679021298c" y="255.289089"/>
    </g>
   </g>
   <g id="PathCollection_2">
    <defs>
     <path d="M 0 3 
C 0.795609 3 1.55874 2.683901 2.12132 2.12132 
C 2.683901 1.55874 3 0.795609 3 0 
C 3 -0.795609 2.683901 -1.55874 2.12132 -2.12132 
C 1.55874 -2.683901 0.795609 -3 0 -3 
C -0.795609 -3 -1.55874 -2.683901 -2.12132 -2.12132 
C -2.683901 -1.55874 -3 -0.795609 -3 0 
C -3 0.795609 -2.683901 1.55874 -2.12132 2.12132 
C -1.55874 2.683901 -0.795609 3 0 3 
z
" id="md27712f23b" style="stroke:#40bfff;"/>
    </defs>
    <g clip-path="url(#pbdcd98d7f0)">
     <use style="fill:#40bfff;stroke:#40bfff;" x="133.40374" xlink:href="#md27712f23b" y="95.235321"/>
     <use style="fill:#40bfff;stroke:#40bfff;" x="163.189247" xlink:href="#md27712f23b" y="103.315285"/>
     <use style="fill:#40bfff;stroke:#40bfff;" x="192.974753" xlink:href="#md27712f23b" y="113.493186"/>
     <use style="fill:#40bfff;stroke:#40bfff;" x="222.76026" xlink:href="#md27712f23b" y="142.742981"/>
     <use style="fill:#40bfff;stroke:#40bfff;" x="252.545766" xlink:href="#md27712f23b" y="159.876367"/>
     <use style="fill:#40bfff;stroke:#40bfff;" x="282.331273" xlink:href="#md27712f23b" y="201.585421"/>
     <use style="fill:#40bfff;stroke:#40bfff;" x="312.116779" xlink:href="#md27712f23b" y="232.565464"/>
    </g>
   </g>
   <g id="PathCollection_3">
    <defs>
     <path d="M 0 3 
C 0.795609 3 1.55874 2.683901 2.12132 2.12132 
C 2.683901 1.55874 3 0.795609 3 0 
C 3 -0.795609 2.683901 -1.55874 2.12132 -2.12132 
C 1.55874 -2.683901 0.795609 -3 0 -3 
C -0.795609 -3 -1.55874 -2.683901 -2.12132 -2.12132 
C -2.683901 -1.55874 -3 -0.795609 -3 0 
C -3 0.795609 -2.683901 1.55874 -2.12132 2.12132 
C -1.55874 2.683901 -0.795609 3 0 3 
z
" id="m8f14a9f0d1" style="stroke:#807fff;"/>
    </defs>
    <g clip-path="url(#pbdcd98d7f0)">
     <use style="fill:#807fff;stroke:#807fff;" x="133.40374" xlink:href="#m8f14a9f0d1" y="101.378658"/>
     <use style="fill:#807fff;stroke:#807fff;" x="163.189247" xlink:href="#m8f14a9f0d1" y="98.261707"/>
     <use style="fill:#807fff;stroke:#807fff;" x="192.974753" xlink:href="#m8f14a9f0d1" y="112.239078"/>
     <use style="fill:#807fff;stroke:#807fff;" x="222.76026" xlink:href="#m8f14a9f0d1" y="133.485622"/>
     <use style="fill:#807fff;stroke:#807fff;" x="252.545766" xlink:href="#m8f14a9f0d1" y="171.900818"/>
     <use style="fill:#807fff;stroke:#807fff;" x="282.331273" xlink:href="#m8f14a9f0d1" y="209.597568"/>
     <use style="fill:#807fff;stroke:#807fff;" x="312.116779" xlink:href="#m8f14a9f0d1" y="233.860905"/>
    </g>
   </g>
   <g id="PathCollection_4">
    <defs>
     <path d="M 0 3 
C 0.795609 3 1.55874 2.683901 2.12132 2.12132 
C 2.683901 1.55874 3 0.795609 3 0 
C 3 -0.795609 2.683901 -1.55874 2.12132 -2.12132 
C 1.55874 -2.683901 0.795609 -3 0 -3 
C -0.795609 -3 -1.55874 -2.683901 -2.12132 -2.12132 
C -2.683901 -1.55874 -3 -0.795609 -3 0 
C -3 0.795609 -2.683901 1.55874 -2.12132 2.12132 
C -1.55874 2.683901 -0.795609 3 0 3 
z
" id="m6c2fda8495" style="stroke:#c03fff;"/>
    </defs>
    <g clip-path="url(#pbdcd98d7f0)">
     <use style="fill:#c03fff;stroke:#c03fff;" x="133.40374" xlink:href="#m6c2fda8495" y="97.3068"/>
     <use style="fill:#c03fff;stroke:#c03fff;" x="163.189247" xlink:href="#m6c2fda8495" y="98.566059"/>
     <use style="fill:#c03fff;stroke:#c03fff;" x="192.974753" xlink:href="#m6c2fda8495" y="117.433476"/>
     <use style="fill:#c03fff;stroke:#c03fff;" x="222.76026" xlink:href="#m6c2fda8495" y="135.829206"/>
     <use style="fill:#c03fff;stroke:#c03fff;" x="252.545766" xlink:href="#m6c2fda8495" y="180.5327"/>
     <use style="fill:#c03fff;stroke:#c03fff;" x="312.116779" xlink:href="#m6c2fda8495" y="247.702669"/>
    </g>
   </g>
   <g id="PathCollection_5">
    <defs>
     <path d="M 0 3 
C 0.795609 3 1.55874 2.683901 2.12132 2.12132 
C 2.683901 1.55874 3 0.795609 3 0 
C 3 -0.795609 2.683901 -1.55874 2.12132 -2.12132 
C 1.55874 -2.683901 0.795609 -3 0 -3 
C -0.795609 -3 -1.55874 -2.683901 -2.12132 -2.12132 
C -2.683901 -1.55874 -3 -0.795609 -3 0 
C -3 0.795609 -2.683901 1.55874 -2.12132 2.12132 
C -1.55874 2.683901 -0.795609 3 0 3 
z
" id="mb94dba1634" style="stroke:#ff00ff;"/>
    </defs>
    <g clip-path="url(#pbdcd98d7f0)">
     <use style="fill:#ff00ff;stroke:#ff00ff;" x="133.40374" xlink:href="#mb94dba1634" y="101.020569"/>
     <use style="fill:#ff00ff;stroke:#ff00ff;" x="163.189247" xlink:href="#mb94dba1634" y="96.034808"/>
     <use style="fill:#ff00ff;stroke:#ff00ff;" x="192.974753" xlink:href="#mb94dba1634" y="107.713831"/>
     <use style="fill:#ff00ff;stroke:#ff00ff;" x="222.76026" xlink:href="#mb94dba1634" y="171.06062"/>
    </g>
   </g>
   <g id="matplotlib.axis_1">
    <g id="xtick_1">
     <g id="line2d_2">
      <defs>
       <path d="M 0 0 
L 0 3.5 
" id="m5868e1963a" style="stroke:#000000;stroke-width:0.8;"/>
      </defs>
      <g>
       <use style="stroke:#000000;stroke-width:0.8;" x="73.832727" xlink:href="#m5868e1963a" y="307.584"/>
      </g>
     </g>
     <g id="text_1">
      <text style="font-family:DejaVu Sans;font-size:10px;font-style:normal;font-weight:normal;text-anchor:middle;" transform="rotate(-0, 73.832727, 322.182437)" x="73.832727" y="322.182437">0.0</text>
     </g>
    </g>
    <g id="xtick_2">
     <g id="line2d_3">
      <g>
       <use style="stroke:#000000;stroke-width:0.8;" x="127.941818" xlink:href="#m5868e1963a" y="307.584"/>
      </g>
     </g>
     <g id="text_2">
      <text style="font-family:DejaVu Sans;font-size:10px;font-style:normal;font-weight:normal;text-anchor:middle;" transform="rotate(-0, 127.941818, 322.182437)" x="127.941818" y="322.182437">0.5</text>
     </g>
    </g>
    <g id="xtick_3">
     <g id="line2d_4">
      <g>
       <use style="stroke:#000000;stroke-width:0.8;" x="182.050909" xlink:href="#m5868e1963a" y="307.584"/>
      </g>
     </g>
     <g id="text_3">
      <text style="font-family:DejaVu Sans;font-size:10px;font-style:normal;font-weight:normal;text-anchor:middle;" transform="rotate(-0, 182.050909, 322.182437)" x="182.050909" y="322.182437">1.0</text>
     </g>
    </g>
    <g id="xtick_4">
     <g id="line2d_5">
      <g>
       <use style="stroke:#000000;stroke-width:0.8;" x="236.16" xlink:href="#m5868e1963a" y="307.584"/>
      </g>
     </g>
     <g id="text_4">
      <text style="font-family:DejaVu Sans;font-size:10px;font-style:normal;font-weight:normal;text-anchor:middle;" transform="rotate(-0, 236.16, 322.182437)" x="236.16" y="322.182437">1.5</text>
     </g>
    </g>
    <g id="xtick_5">
     <g id="line2d_6">
      <g>
       <use style="stroke:#000000;stroke-width:0.8;" x="290.269091" xlink:href="#m5868e1963a" y="307.584"/>
      </g>
     </g>
     <g id="text_5">
      <text style="font-family:DejaVu Sans;font-size:10px;font-style:normal;font-weight:normal;text-anchor:middle;" transform="rotate(-0, 290.269091, 322.182437)" x="290.269091" y="322.182437">2.0</text>
     </g>
    </g>
    <g id="xtick_6">
     <g id="line2d_7">
      <g>
       <use style="stroke:#000000;stroke-width:0.8;" x="344.378182" xlink:href="#m5868e1963a" y="307.584"/>
      </g>
     </g>
     <g id="text_6">
      <text style="font-family:DejaVu Sans;font-size:10px;font-style:normal;font-weight:normal;text-anchor:middle;" transform="rotate(-0, 344.378182, 322.182437)" x="344.378182" y="322.182437">2.5</text>
     </g>
    </g>
    <g id="xtick_7">
     <g id="line2d_8">
      <g>
       <use style="stroke:#000000;stroke-width:0.8;" x="398.487273" xlink:href="#m5868e1963a" y="307.584"/>
      </g>
     </g>
     <g id="text_7">
      <text style="font-family:DejaVu Sans;font-size:10px;font-style:normal;font-weight:normal;text-anchor:middle;" transform="rotate(-0, 398.487273, 322.182437)" x="398.487273" y="322.182437">3.0</text>
     </g>
    </g>
    <g id="text_8">
     <text style="font-family:DejaVu Sans;font-size:10px;font-style:normal;font-weight:normal;text-anchor:middle;" transform="rotate(-0, 236.16, 335.860562)" x="236.16" y="335.860562">log T</text>
    </g>
   </g>
   <g id="matplotlib.axis_2">
    <g id="ytick_1">
     <g id="line2d_9">
      <defs>
       <path d="M 0 0 
L -3.5 0 
" id="mc76e628bda" style="stroke:#000000;stroke-width:0.8;"/>
      </defs>
      <g>
       <use style="stroke:#000000;stroke-width:0.8;" x="57.6" xlink:href="#mc76e628bda" y="290.112"/>
      </g>
     </g>
     <g id="text_9">
      <text style="font-family:DejaVu Sans;font-size:10px;font-style:normal;font-weight:normal;text-anchor:end;" transform="rotate(-0, 50.6, 293.911219)" x="50.6" y="293.911219">−4</text>
     </g>
    </g>
    <g id="ytick_2">
     <g id="line2d_10">
      <g>
       <use style="stroke:#000000;stroke-width:0.8;" x="57.6" xlink:href="#mc76e628bda" y="236.352"/>
      </g>
     </g>
     <g id="text_10">
      <text style="font-family:DejaVu Sans;font-size:10px;font-style:normal;font-weight:normal;text-anchor:end;" transform="rotate(-0, 50.6, 240.151219)" x="50.6" y="240.151219">−3</text>
     </g>
    </g>
    <g id="ytick_3">
     <g id="line2d_11">
      <g>
       <use style="stroke:#000000;stroke-width:0.8;" x="57.6" xlink:href="#mc76e628bda" y="182.592"/>
      </g>
     </g>
     <g id="text_11">
      <text style="font-family:DejaVu Sans;font-size:10px;font-style:normal;font-weight:normal;text-anchor:end;" transform="rotate(-0, 50.6, 186.391219)" x="50.6" y="186.391219">−2</text>
     </g>
    </g>
    <g id="ytick_4">
     <g id="line2d_12">
      <g>
       <use style="stroke:#000000;stroke-width:0.8;" x="57.6" xlink:href="#mc76e628bda" y="128.832"/>
      </g>
     </g>
     <g id="text_12">
      <text style="font-family:DejaVu Sans;font-size:10px;font-style:normal;font-weight:normal;text-anchor:end;" transform="rotate(-0, 50.6, 132.631219)" x="50.6" y="132.631219">−1</text>
     </g>
    </g>
    <g id="ytick_5">
     <g id="line2d_13">
      <g>
       <use style="stroke:#000000;stroke-width:0.8;" x="57.6" xlink:href="#mc76e628bda" y="75.072"/>
      </g>
     </g>
     <g id="text_13">
      <text style="font-family:DejaVu Sans;font-size:10px;font-style:normal;font-weight:normal;text-anchor:end;" transform="rotate(-0, 50.6, 78.871219)" x="50.6" y="78.871219">0</text>
     </g>
    </g>
    <g id="text_14">
     <text style="font-family:DejaVu Sans;font-size:10px;font-style:normal;font-weight:normal;text-anchor:middle;" transform="rotate(-90, 29.778125, 174.528)" x="29.778125" y="174.528">log frequency</text>
    </g>
   </g>
   <g id="patch_3">
    <path d="M 57.6 307.584 
L 57.6 41.472 
" style="fill:none;stroke:#000000;stroke-linecap:square;stroke-linejoin:miter;stroke-width:0.8;"/>
   </g>
   <g id="patch_4">
    <path d="M 414.72 307.584 
L 414.72 41.472 
" style="fill:none;stroke:#000000;stroke-linecap:square;stroke-linejoin:miter;stroke-width:0.8;"/>
   </g>
   <g id="patch_5">
    <path d="M 57.6 307.584 
L 414.72 307.584 
" style="fill:none;stroke:#000000;stroke-linecap:square;stroke-linejoin:miter;stroke-width:0.8;"/>
   </g>
   <g id="patch_6">
    <path d="M 57.6 41.472 
L 414.72 41.472 
" style="fill:none;stroke:#000000;stroke-linecap:square;stroke-linejoin:miter;stroke-width:0.8;"/>
   </g>
   <g id="legend_1">
    <g id="patch_7">
     <path d="M 273.890312 137.54075 
L 407.72 137.54075 
Q 409.72 137.54075 409.72 135.54075 
L 409.72 48.472 
Q 409.72 46.472 407.72 46.472 
L 273.890312 46.472 
Q 271.890312 46.472 271.890312 48.472 
L 271.890312 135.54075 
Q 271.890312 137.54075 273.890312 137.54075 
z
" style="fill:#ffffff;opacity:0.8;stroke:#cccccc;stroke-linejoin:miter;"/>
    </g>
    <g id="text_15">
     <text style="font-family:DejaVu Sans;font-size:10px;font-style:normal;font-weight:normal;text-anchor:start;" transform="rotate(-0, 275.890312, 58.070438)" x="275.890312" y="58.070438">threshhold (fraction &lt;X&gt;)</text>
    </g>
    <g id="PathCollection_6">
     <g>
      <use style="fill:#00ffff;stroke:#00ffff;" x="328.853594" xlink:href="#m679021298c" y="70.123563"/>
     </g>
    </g>
    <g id="text_16">
     <text style="font-family:DejaVu Sans;font-size:10px;font-style:normal;font-weight:normal;text-anchor:start;" transform="rotate(-0, 346.853594, 72.748563)" x="346.853594" y="72.748563">0.1</text>
    </g>
    <g id="PathCollection_7">
     <g>
      <use style="fill:#40bfff;stroke:#40bfff;" x="328.853594" xlink:href="#md27712f23b" y="84.801688"/>
     </g>
    </g>
    <g id="text_17">
     <text style="font-family:DejaVu Sans;font-size:10px;font-style:normal;font-weight:normal;text-anchor:start;" transform="rotate(-0, 346.853594, 87.426688)" x="346.853594" y="87.426688">0.5</text>
    </g>
    <g id="PathCollection_8">
     <g>
      <use style="fill:#807fff;stroke:#807fff;" x="328.853594" xlink:href="#m8f14a9f0d1" y="99.479813"/>
     </g>
    </g>
    <g id="text_18">
     <text style="font-family:DejaVu Sans;font-size:10px;font-style:normal;font-weight:normal;text-anchor:start;" transform="rotate(-0, 346.853594, 102.104813)" x="346.853594" y="102.104813">1</text>
    </g>
    <g id="PathCollection_9">
     <g>
      <use style="fill:#c03fff;stroke:#c03fff;" x="328.853594" xlink:href="#m6c2fda8495" y="114.157938"/>
     </g>
    </g>
    <g id="text_19">
     <text style="font-family:DejaVu Sans;font-size:10px;font-style:normal;font-weight:normal;text-anchor:start;" transform="rotate(-0, 346.853594, 116.782938)" x="346.853594" y="116.782938">2</text>
    </g>
    <g id="PathCollection_10">
     <g>
      <use style="fill:#ff00ff;stroke:#ff00ff;" x="328.853594" xlink:href="#mb94dba1634" y="128.836063"/>
     </g>
    </g>
    <g id="text_20">
     <text style="font-family:DejaVu Sans;font-size:10px;font-style:normal;font-weight:normal;text-anchor:start;" transform="rotate(-0, 346.853594, 131.461063)" x="346.853594" y="131.461063">10</text>
    </g>
   </g>
  </g>
 </g>
 <defs>
  <clipPath id="pbdcd98d7f0">
   <rect height="266.112" width="357.12" x="57.6" y="41.472"/>
  </clipPath>
 </defs>
</svg>
